<svg xmlns="http://www.w3.org/2000/svg" width="547" height="37" fill="none" viewBox="0 0 547 37"><path fill="#E7E5E4" d="M270.47 35.798V.638h20.47v4.286h-15.75v10.452h14.065v4.143H275.19v11.993h15.75v4.286zM244.046 35.798V.638h4.768v30.825h15.654v4.335zM222.053 35.798V4.973h-9.536V.638h23.793v4.335h-9.488v30.825zM196.689 36.28q-5.202 0-8.284-2.697-3.083-2.745-3.083-7.514h4.768q0 2.793 1.783 4.383t4.816 1.59q2.89 0 4.576-1.59 1.734-1.638 1.734-4.335 0-2.023-1.108-3.516-1.108-1.541-3.131-2.071l-5.202-1.397q-3.42-.963-5.442-3.468-1.975-2.553-1.975-6.02 0-2.843 1.252-4.961 1.3-2.168 3.613-3.324 2.312-1.204 5.346-1.204 3.083 0 5.394 1.204 2.36 1.156 3.661 3.275 1.3 2.119 1.301 4.913h-4.721q0-2.311-1.589-3.757-1.541-1.445-4.046-1.445t-4.046 1.445q-1.493 1.446-1.493 3.757 0 1.879 1.011 3.18 1.012 1.251 2.842 1.781l5.347 1.445q3.612.963 5.635 3.709 2.023 2.697 2.023 6.454 0 3.082-1.349 5.395-1.348 2.263-3.853 3.516-2.457 1.252-5.78 1.252M158.802 35.798V.638h20.47v4.286h-15.75v10.452h14.064v4.143h-14.064v11.993h15.75v4.286zM130.5 35.798V.638h10.885q3.227 0 5.635 1.3a9.14 9.14 0 0 1 3.757 3.564q1.349 2.265 1.349 5.347 0 3.564-1.831 6.117-1.782 2.553-4.768 3.612l7.08 15.22h-5.25l-6.695-14.69h-5.442v14.69zm4.72-18.929h6.165q2.697 0 4.238-1.637 1.59-1.638 1.59-4.335 0-2.745-1.59-4.383-1.589-1.638-4.238-1.638h-6.165zM110.385 35.798V4.973h-9.537V.638h23.794v4.335h-9.488v30.825zM14.72 36.22q-3.43 0-5.434-1.734-1.965-1.695-1.695-4.778l.578-6.203q.192-1.928-.578-2.775-.732-.886-3.044-.886H0v-3.43h4.547q2.312 0 3.044-.886.77-.886.578-2.812L7.59 6.473Q7.32 3.43 9.286 1.734 11.29 0 14.72 0h1.966v3.43h-1.812q-1.733 0-2.658.809-.925.808-.81 2.35l.579 6.242q.23 2.197-1.04 3.545-1.273 1.35-4.008 1.619 2.736.308 4.007 1.772 1.272 1.465 1.04 3.622l-.578 6.242q-.115 1.542.81 2.35.924.81 2.658.81h1.812v3.43zM69.18 36.22v-3.43h1.773q1.734 0 2.697-.808 1.002-.81.77-2.35l-.924-6.243q-.309-2.12.81-3.583 1.155-1.503 3.12-1.85-2.003-.347-3.12-1.657-1.119-1.31-.81-3.468l.925-6.242q.23-1.542-.77-2.35-.964-.81-2.698-.81H69.18V0h1.966q2.235 0 3.93.77 1.734.772 2.582 2.236.847 1.425.578 3.467l-.925 6.243q-.27 1.926.5 2.813.81.886 3.122.886h4.932v3.43h-4.932q-2.274 0-3.083.885-.81.848-.54 2.775l.925 6.203q.27 2.042-.578 3.507-.847 1.463-2.543 2.235-1.695.77-3.968.77z"/><path fill="#00BBA7" d="m55.572 24.649-2.464-1.722 1.934-2.729q.397-.556.768-.927.37-.371.821-.715-.556-.054-1.086-.133a7 7 0 0 1-1.06-.318l-3.099-1.139 1.033-2.834 3.1 1.139q.556.211 1.006.477.45.238.901.556a7.6 7.6 0 0 1-.291-1.086 7 7 0 0 1-.106-1.325v-3.152h3.02v3.152q0 .768-.106 1.325t-.292 1.086q.45-.318.901-.556.45-.265 1.007-.477l3.1-1.14 1.032 2.835-3.1 1.14q-.555.211-1.085.317a17 17 0 0 1-1.06.133q.45.345.821.715t.768.927l1.934 2.729-2.463 1.722-1.96-2.702a8 8 0 0 1-.61-1.007 13 13 0 0 1-.397-1.007 9 9 0 0 1-.424 1.007 6 6 0 0 1-.583 1.007zM39.688 24.649l-2.464-1.722 1.934-2.729q.396-.556.768-.927.37-.371.821-.715-.556-.054-1.086-.133a7 7 0 0 1-1.06-.318l-3.1-1.139 1.034-2.834 3.1 1.139q.555.211 1.006.477.45.238.9.556a7.6 7.6 0 0 1-.29-1.086 7 7 0 0 1-.106-1.325v-3.152h3.02v3.152q0 .768-.106 1.325t-.292 1.086q.45-.318.9-.556.451-.265 1.007-.477l3.1-1.14 1.033 2.835-3.1 1.14q-.555.211-1.086.317a17 17 0 0 1-1.06.133q.452.345.822.715t.768.927l1.934 2.729-2.464 1.722-1.96-2.702a8 8 0 0 1-.61-1.007 13 13 0 0 1-.397-1.007 9 9 0 0 1-.423 1.007 6 6 0 0 1-.583 1.007zM23.803 24.649l-2.463-1.722 1.933-2.729q.397-.556.769-.927.37-.371.82-.715-.555-.054-1.085-.133a7 7 0 0 1-1.06-.318l-3.1-1.139 1.034-2.834 3.1 1.139q.556.211 1.006.477.45.238.9.556a7.6 7.6 0 0 1-.29-1.086 7 7 0 0 1-.107-1.325v-3.152h3.02v3.152q0 .768-.106 1.325t-.291 1.086q.45-.318.9-.556.45-.265 1.007-.477l3.1-1.14 1.033 2.835-3.1 1.14q-.556.211-1.086.317a17 17 0 0 1-1.06.133q.45.345.822.715.37.37.768.927l1.934 2.729-2.464 1.722-1.96-2.702a8 8 0 0 1-.61-1.007 13 13 0 0 1-.397-1.007 9 9 0 0 1-.424 1.007 6 6 0 0 1-.582 1.007z"/><path fill="#E7E5E4" d="M535.376 36.134h-3.783V18.087h3.783v2.985h.174c.763-1.944 2.29-3.401 5.067-3.401 3.679 0 5.865 2.568 5.865 7.01v11.453h-3.783V25.167c0-2.81-1.076-4.234-3.401-4.234-1.978 0-3.922 1.007-3.922 3.124zM519.778 36.55c-5.033 0-8.295-3.678-8.295-9.44 0-5.76 3.262-9.44 8.295-9.44s8.294 3.68 8.294 9.44c0 5.762-3.262 9.44-8.294 9.44m0-3.123c2.568 0 4.303-1.596 4.303-4.79v-3.053c0-3.193-1.735-4.79-4.303-4.79s-4.304 1.597-4.304 4.79v3.054c0 3.193 1.736 4.79 4.304 4.79M506.116 14.86c-1.562 0-2.256-.833-2.256-1.978v-.59c0-1.146.694-1.979 2.256-1.979s2.221.833 2.221 1.979v.59c0 1.145-.659 1.978-2.221 1.978m-1.909 21.274V18.087h3.783v18.047zM500.52 36.134h-3.297c-2.603 0-3.991-1.457-3.991-3.922V21.176h-2.811v-3.089h1.527c1.249 0 1.666-.52 1.666-1.77V13.16h3.401v4.928h3.783v3.09h-3.783v11.868h3.505zM482.204 36.55c-5.206 0-8.19-3.678-8.19-9.44 0-5.76 2.984-9.44 8.19-9.44 3.609 0 5.9 1.77 6.976 4.443l-3.124 1.458c-.52-1.666-1.804-2.742-3.852-2.742-2.776 0-4.199 1.909-4.199 4.685v3.228c0 2.776 1.423 4.685 4.199 4.685 2.186 0 3.471-1.18 4.234-2.985l2.881 1.527c-1.18 2.95-3.644 4.582-7.115 4.582M472.448 36.134h-4.095l-2.187-6.56h-9.058l-2.117 6.56H451l8.26-24.224h4.928zm-7.253-9.926-3.471-10.689h-.174l-3.505 10.69zM426.565 36.134V10.452h3.783v10.62h.173c.764-2.152 2.673-3.401 5.067-3.401 4.547 0 7.184 3.505 7.184 9.44s-2.637 9.44-7.184 9.44c-2.394 0-4.303-1.285-5.067-3.401h-.173v2.984zm7.878-2.846c2.603 0 4.338-1.84 4.338-4.615v-3.124c0-2.776-1.735-4.616-4.338-4.616-2.29 0-4.095 1.25-4.095 3.089V30.2c0 1.839 1.805 3.088 4.095 3.088M418.059 36.134V33.15h-.138c-.66 1.77-2.083 3.4-5.067 3.4-3.714 0-5.9-2.533-5.9-6.975V18.087h3.783V29.09c0 2.742 1.145 4.2 3.47 4.2 1.944 0 3.852-1.007 3.852-3.124V18.087h3.783v18.047zM398.213 36.134v-10.55h-10.967v10.55h-3.922V11.91h3.922v10.203h10.967V11.91h3.921v24.224zM379.359 36.134h-3.297c-2.603 0-3.991-1.457-3.991-3.922V21.176h-2.811v-3.089h1.527c1.25 0 1.666-.52 1.666-1.77V13.16h3.401v4.928h3.783v3.09h-3.783v11.868h3.505zM364.483 14.86c-1.562 0-2.256-.833-2.256-1.978v-.59c0-1.146.694-1.979 2.256-1.979s2.221.833 2.221 1.979v.59c0 1.145-.659 1.978-2.221 1.978m-1.909 21.274V18.087h3.783v18.047zM354.659 36.134v-3.679h-.139c-.486 2.326-2.846 4.096-6.525 4.096-5.761 0-9.995-4.408-9.995-12.529 0-8.086 4.234-12.529 10.585-12.529 4.338 0 7.358 2.048 9.024 5.45l-3.193 1.873c-.937-2.256-2.881-3.817-5.831-3.817-3.817 0-6.386 2.603-6.386 7.045V26c0 4.442 2.569 7.045 6.386 7.045 3.054 0 5.727-1.561 5.727-4.58V26.59h-4.998v-3.366h8.78v12.91zM314.944 29.371c-3.305-.401-5.634-2.779-5.634-5.859 0-1.251.451-2.604 1.202-3.504-.326-.826-.275-2.58.1-3.305 1.001-.125 2.353.401 3.155 1.126.95-.3 1.953-.45 3.18-.45 1.226 0 2.228.15 3.129.425.776-.701 2.153-1.226 3.154-1.101.351.675.402 2.429.075 3.28.802.951 1.227 2.229 1.227 3.53 0 3.08-2.328 5.408-5.682 5.834.85.55 1.426 1.752 1.426 3.128v2.604c0 .752.626 1.177 1.377.877 4.532-1.728 8.087-6.26 8.087-11.867 0-7.086-5.758-12.87-12.843-12.87-7.087 0-12.795 5.784-12.795 12.87a12.63 12.63 0 0 0 8.288 11.892c.676.25 1.327-.2 1.327-.876v-2.004c-.381.159-.789.244-1.202.25-1.653 0-2.63-.901-3.33-2.579-.275-.676-.576-1.076-1.152-1.151-.301-.026-.4-.15-.4-.301 0-.301.501-.525 1.001-.525.726 0 1.352.45 2.003 1.376.501.726 1.026 1.052 1.653 1.052.625 0 1.025-.226 1.602-.802.425-.425.751-.8 1.052-1.05"/></svg>
